<svg width="12" height="12" viewBox="0 0 12 12" fill="none" xmlns="http://www.w3.org/2000/svg">
  <path
    d="M6 12C5.17 12 4.39 11.8425 3.66 11.5275C2.93 11.2125 2.295 10.785 1.755 10.245C1.215 9.705 0.7875 9.07 0.4725 8.34C0.1575 7.61 0 6.83 0 6C0 5.17 0.1575 4.39 0.4725 3.66C0.7875 2.93 1.215 2.295 1.755 1.755C2.295 1.215 2.93 0.7875 3.66 0.4725C4.39 0.1575 5.17 0 6 0C6.83 0 7.61 0.1575 8.34 0.4725C9.07 0.7875 9.705 1.215 10.245 1.755C10.785 2.295 11.2125 2.93 11.5275 3.66C11.8425 4.39 12 5.17 12 6C12 6.83 11.8425 7.61 11.5275 8.34C11.2125 9.07 10.785 9.705 10.245 10.245C9.705 10.785 9.07 11.2125 8.34 11.5275C7.61 11.8425 6.83 12 6 12Z"
    fill="#5C5959"
  />
  <path
    d="M6 4.5C6.22 4.5 6.4125 4.4325 6.5775 4.2975C6.7425 4.1625 6.825 3.99 6.825 3.78C6.825 3.57 6.7425 3.3975 6.5775 3.2625C6.4125 3.1275 6.22 3.06 6 3.06C5.78 3.06 5.5875 3.1275 5.4225 3.2625C5.2575 3.3975 5.175 3.57 5.175 3.78C5.175 3.99 5.2575 4.1625 5.4225 4.2975C5.5875 4.4325 5.78 4.5 6 4.5Z"
    fill="#FFFFFF"
  />
  <path d="M5.4 9H6.6V5.4H5.4V9Z" fill="#FFFFFF" />
</svg>

