<svg
  width="91"
  height="56"
  viewBox="0 0 91 56"
  fill="none"
  xmlns="http://www.w3.org/2000/svg"
>
  <path
    d="M2.60965 42.73H1.19965V49.66H2.61965V42.73H2.60965ZM7.41965 49.66V42.73H9.21965C11.3196 46.93 11.6196 47.63 11.7196 47.97C11.6468 46.9417 11.6168 45.9108 11.6296 44.88V42.73H12.9296V49.66H11.2296C8.99965 45.02 8.74965 44.46 8.64965 44.2C8.70965 45.08 8.70965 46.3 8.70965 47.51V49.66H7.40965H7.41965ZM19.1896 42.73H17.7696V49.66H19.1896V42.73ZM25.2696 43.9H23.3896V42.73H28.5696V43.89H26.6996V49.66H25.2796V43.89L25.2696 43.9ZM34.1996 42.73H32.7996V49.66H34.2197V42.73H34.1996ZM40.2197 48.01L39.7397 49.66H38.3396L40.4396 42.73H42.2696L44.4897 49.66H43.0396L42.5196 48.01H40.2197ZM42.2296 46.85C41.7996 45.45 41.5296 44.45 41.3396 43.8C41.1 44.8274 40.8198 45.8448 40.4996 46.85H42.2296ZM49.3596 43.9H47.4897V42.73H52.6596V43.89H50.7796V49.66H49.3596V43.89V43.9ZM58.2896 42.73H56.8797V49.66H58.2896V42.73ZM64.6396 49.66L62.4096 42.73H63.9096L64.8297 45.88C65.1096 46.79 65.3596 47.68 65.4896 48.33C65.6396 47.72 65.9097 46.78 66.1897 45.93L67.1597 42.73H68.5996L66.2997 49.66H64.6396ZM77.1197 46.63H74.1096V48.49H77.4296L77.2597 49.66H72.7297V42.73H77.2496V43.89H74.1096V45.46H77.1197V46.63ZM2.09965 26.77C2.15572 27.4337 2.47226 28.0482 2.98007 28.4792C3.48789 28.9102 4.14567 29.1226 4.80965 29.07C6.24965 29.07 7.17965 28.33 7.17965 26.97C7.17965 25.62 6.55965 25.16 4.45965 24.46C1.97965 23.69 1.00965 22.86 1.00965 21.16C1.00965 19.24 2.43965 18.04 4.66965 18.04C7.23965 18.04 8.32965 19.54 8.46965 21.24H6.98965C6.97371 20.9497 6.89876 20.6656 6.76936 20.4051C6.63996 20.1447 6.45883 19.9133 6.23703 19.7252C6.01523 19.5371 5.75742 19.3962 5.47934 19.311C5.20126 19.2259 4.90874 19.1983 4.61965 19.23C3.21965 19.23 2.51965 19.93 2.51965 21.01C2.51965 22.09 3.13965 22.58 5.06965 23.16C8.00965 24.06 8.71965 25.18 8.71965 26.83C8.71965 28.82 7.31965 30.28 4.73965 30.28C2.25965 30.28 0.789648 28.94 0.639648 26.78L2.09965 26.77ZM17.3296 27.33C17.2339 28.1848 16.815 28.9705 16.1587 29.5264C15.5024 30.0823 14.6585 30.3662 13.7996 30.32C11.3396 30.32 10.0996 28.67 10.0996 25.74C10.0996 23.2 11.3796 21.19 13.8796 21.19C14.3073 21.1589 14.7368 21.2139 15.1427 21.352C15.5486 21.49 15.9227 21.7083 16.2426 21.9937C16.5626 22.2791 16.8219 22.6259 17.0052 23.0136C17.1885 23.4012 17.292 23.8216 17.3096 24.25H15.8796C15.6996 23.25 15.1796 22.37 13.8696 22.37C12.2596 22.37 11.5696 23.77 11.5696 25.71C11.5696 27.96 12.3796 29.14 13.8496 29.14C15.0596 29.14 15.5796 28.38 15.8996 27.34H17.3296V27.33ZM20.3796 17.54V22.63C20.6276 22.1594 21.0076 21.7714 21.4731 21.5138C21.9386 21.2562 22.4692 21.1402 22.9996 21.18C24.2796 21.18 25.7996 21.84 25.7996 24.33V30.13H24.3996V24.54C24.3996 23.22 23.8797 22.44 22.5996 22.44C21.1996 22.44 20.4496 23.38 20.4496 25.13V30.13H18.9496V17.57L20.3796 17.54ZM35.1996 25.61C35.1996 28.15 34.0997 30.3 31.2796 30.3C28.4496 30.3 27.4596 28.06 27.4596 25.66C27.4596 23.26 28.7296 21.19 31.3996 21.19C33.8696 21.19 35.1996 23.09 35.1996 25.61ZM28.9596 25.61C28.9596 27.62 29.7796 29.11 31.3596 29.11C32.9397 29.11 33.7197 27.71 33.7197 25.61C33.7197 23.69 32.9196 22.38 31.3196 22.38C29.7296 22.38 28.9596 23.7 28.9596 25.62M44.1996 25.61C44.1996 28.15 43.0797 30.3 40.2696 30.3C37.4496 30.3 36.4496 28.06 36.4496 25.66C36.4496 23.26 37.7296 21.19 40.3896 21.19C42.8596 21.19 44.1896 23.09 44.1896 25.61H44.1996ZM37.8997 25.61C37.8997 27.62 38.7396 29.11 40.3196 29.11C41.8997 29.11 42.6696 27.71 42.6696 25.61C42.7096 23.71 41.9196 22.36 40.3196 22.36C38.7197 22.36 37.9396 23.69 37.9396 25.61M47.3997 17.54H45.9596V30.14H47.3997V17.54ZM54.3496 18.17H58.5496C60.6896 18.17 62.0496 19.26 62.0496 21.11C62.0873 21.6597 61.9379 22.206 61.6256 22.6599C61.3133 23.1139 60.8565 23.4487 60.3297 23.61C60.9567 23.8068 61.5017 24.2039 61.8811 24.7405C62.2605 25.277 62.4532 25.9233 62.4296 26.58C62.4296 28.86 60.7596 30.12 58.3896 30.12H54.3496V18.17ZM58.1796 23.06C59.8797 23.06 60.5496 22.36 60.5496 21.19C60.5496 20.09 59.8496 19.31 58.2996 19.31H55.7996V23.06H58.1796ZM55.7996 28.9H58.2397C59.7397 28.9 60.8797 28.2 60.8797 26.56C60.8797 25.12 59.9697 24.26 58.0896 24.26H55.7896V28.9H55.7996ZM70.9697 27.66V30.14H69.5696C69.5114 29.6758 69.488 29.2078 69.4996 28.74C69.2838 29.235 68.9198 29.6508 68.4577 29.9302C67.9956 30.2096 67.4582 30.3388 66.9196 30.3C65.5196 30.3 64.2396 29.65 64.2396 27.27V21.37H65.6396V26.99C65.6396 28.13 65.9996 29.05 67.3396 29.05C68.6696 29.05 69.4296 28.2 69.4296 26.25V21.37H70.8796L70.9697 27.67V27.66ZM73.9697 27.6C74.0273 28.0693 74.2673 28.4971 74.6378 28.7909C75.0083 29.0847 75.4796 29.2209 75.9496 29.17C77.1496 29.17 77.6197 28.53 77.6197 27.77C77.6197 27.02 77.0696 26.56 75.5797 26.16C73.4397 25.57 72.8796 24.76 72.8796 23.62C72.8796 22.47 73.6796 21.18 75.8297 21.18C77.9797 21.18 78.7696 22.35 78.8896 23.7H77.4896C77.4709 23.4952 77.4116 23.2961 77.3152 23.1144C77.2188 22.9327 77.0871 22.7721 76.928 22.6418C76.7688 22.5115 76.5853 22.4141 76.3882 22.3555C76.191 22.2968 75.9842 22.278 75.7796 22.3C74.7796 22.3 74.3396 22.77 74.3396 23.5C74.3396 24.22 74.6696 24.52 76.1396 24.9C78.3697 25.5 79.0896 26.25 79.0896 27.69C79.0896 29.31 77.8096 30.32 75.9196 30.32C74.0296 30.32 72.7297 29.45 72.5696 27.62L73.9697 27.59V27.6Z"
    fill="#191919"
  />
  <path
    d="M8.80027 7.41H3.63027V10.59H9.33027L9.04027 12.59H1.28027V0.73H9.02027V2.72H3.63027V5.4H8.80027V7.41ZM13.2603 0H10.9003V12.6H13.2603V0ZM17.2103 8.64C17.2103 9.74 17.6303 10.91 18.9603 10.91C19.3024 10.9364 19.643 10.8431 19.9239 10.6461C20.2048 10.4491 20.4086 10.1606 20.5003 9.83H22.8003C22.6037 10.7068 22.0989 11.4839 21.3776 12.0199C20.6563 12.5558 19.7665 12.8149 18.8703 12.75C16.0203 12.75 14.8203 10.79 14.8203 8.12C14.8203 5.91 15.9203 3.45 18.9703 3.45C22.0203 3.45 22.8803 5.59 22.8803 7.92V8.62L17.2103 8.64ZM20.6203 7.1C20.5803 6.1 20.1703 5.21 18.9603 5.21C17.6303 5.21 17.3003 6.31 17.2503 7.11H20.6203V7.1ZM31.9903 9.46C31.7303 11.26 30.5903 12.75 28.0803 12.75C25.3203 12.75 24.0403 11.05 24.0403 8.12C24.0403 5.19 25.6203 3.45 28.2303 3.45C31.1503 3.45 31.9503 5.55 32.0003 6.81H29.6303C29.5403 5.99 29.1803 5.25 28.1603 5.25C26.9303 5.25 26.4303 6.39 26.4303 8.05C26.4303 10.14 27.0603 10.97 28.1303 10.97C29.1903 10.97 29.4603 10.31 29.6503 9.47L31.9903 9.46ZM32.6503 3.62H33.9203V1.19H36.2503V3.62H37.8503V5.46H36.2503V10.06C36.2503 10.67 36.4103 10.93 37.1403 10.93C37.3203 10.93 37.5003 10.93 37.6803 10.89V12.5C37.2103 12.63 36.7203 12.68 36.2403 12.68C34.5003 12.68 33.9203 11.98 33.9203 10.32V5.42H32.6503V3.62ZM39.1303 6.67V3.62H41.4103C41.4703 4.14 41.4903 4.67 41.4803 5.19C41.7049 4.66212 42.0862 4.21597 42.5727 3.91192C43.0592 3.60787 43.6273 3.46059 44.2003 3.49V5.87C42.3403 5.84 41.5103 6.46 41.5103 8.52V12.58H39.1303V6.67ZM45.4203 0H47.7703V2.17H45.4203V0ZM45.4203 3.62H47.7703V12.58H45.4203V3.62ZM57.3003 9.46C57.0303 11.26 55.9003 12.75 53.3803 12.75C50.6303 12.75 49.3503 11.05 49.3503 8.12C49.3503 5.19 50.9303 3.45 53.5403 3.45C56.4703 3.45 57.2603 5.55 57.3203 6.81H54.9103C54.8303 5.99 54.4603 5.25 53.4403 5.25C52.2103 5.25 51.7103 6.39 51.7103 8.05C51.7103 10.14 52.3303 10.97 53.4103 10.97C54.4803 10.97 54.7403 10.31 54.9303 9.47L57.3003 9.46Z"
    fill="#F0AB00"
  />
  <path d="M80 35.8601H0V36.6401H80V35.8601Z" fill="#191919" />
</svg>

